<svg xmlns="http://www.w3.org/2000/svg" viewBox="0 0 36.17 31.25"><defs><style>.cls-1{fill:none;stroke:#b31315;stroke-miterlimit:10;stroke-width:0.75px;}</style></defs><title>Asset 11</title><g id="Layer_2" data-name="Layer 2"><g id="Layer_1-2" data-name="Layer 1"><path class="cls-1" d="M.81,22.54a11.68,11.68,0,0,1,.32-7.11,12.34,12.34,0,0,1,3.6-6.19,15.19,15.19,0,0,1,4-2.11l13.7-5.58c2.35-1,5.19-1.86,7.25-.39,2.43,1.74,2,5.49,3.51,8.07.56,1,1.39,1.75,1.93,2.72,1.45,2.61.46,6-1.54,8.25s-4.81,3.5-7.53,4.72c-5.3,2.39-10.75,4.89-16.53,5.85C4.49,31.61,2.42,27.17.81,22.54Z"/></g></g></svg>