<svg xmlns="http://www.w3.org/2000/svg" xmlns:xlink="http://www.w3.org/1999/xlink" viewBox="0 0 352.31 524.75"><defs><style>.cls-1{fill:none;}.cls-2{clip-path:url(#clip-path);}</style><clipPath id="clip-path" transform="translate(0 0)"><path class="cls-1" d="M121.46,152.49s-5.48-.55-5.48-1.37,1.92-9,5.48-9,6.3,3.29,9.58,3.29,12,.55,12,.55,12.32-3,15.06-2.19,7.67-.27,8.76.82,15.06.82,15.06.82,4.93,2.19,7.94.27,8.21-2.19,9-.55,3,4.93,6.57,4.93,11-4.93,13.69-4.93,5.2,3.56,6.84,5.2,1.37,7.94-2.74,7.94-21.9-3.56-24.91-2.74-25.89-2.19-26.91-2.19-10.05,1.1-10.05,1.1l-14,2.19s-17.25-1.37-21.63-2.74Z"/></clipPath></defs><title>Asset 58</title><g id="Layer_2" data-name="Layer 2"><g id="Layer_1-2" data-name="Layer 1"><g class="cls-2"><image width="1561" height="2325" transform="translate(0 0) scale(0.23)" xlink:href="../../../../Portfolio Gallery/D5.jpg"/></g></g></g></svg>