<svg xmlns="http://www.w3.org/2000/svg" xmlns:xlink="http://www.w3.org/1999/xlink" viewBox="0 0 530.24 789.75"><defs><style>.cls-1{fill:none;}.cls-2{clip-path:url(#clip-path);}</style><clipPath id="clip-path" transform="translate(0 0)"><path class="cls-1" d="M71.43,416.38l-2.65-1.88v-4.06L66,407.66V412s-1.5-2.65-2.14-3.51l-4.49-6L60.44,397l-6-1.07s-.21-5.13-1.5-7.27-1.28,6.24-1.28,6.24-3.21-2-3.85-3.89S44,379.65,44.62,370.67a30.21,30.21,0,0,1-2.14-4.49c-.64-1.92.21-15.82,11.33-31.64,0,0-14.54,15.82-18.6,35.92a109.29,109.29,0,0,0-1.5,35.7,27.94,27.94,0,0,0-.8,4.37c-.06,1.53-7.85-35.77-.61-53.58S56.66,325.5,59.59,324.8s26.44-28,36.88-30.06,23-6.4,28.53-4.31,13.08-.56,13.08-.56,1.95-2.23,5.85,1.11,15.17,3.2,18.79,5.29,1.75-3.3,1.75-3.3h3.08v6.75l2.37,2.49,3.43-.95.47-8.05,2.13-.71.95,11a2.13,2.13,0,0,0,2.13-2.25c0-2.25-1.07-9-1.07-9s4.14,5.33,4.86,8.64,5.21,4,5.21,4l2.13-1.54,1.89,1.54,1.07,4.38,1.78.59.71-2.37h2l2,3.2,3.67.47s-2.61-5.68,0-5.45,6.87,6.28,8.17,5.09,5.21-4.62,8.17-4.62,13.26-3.08,13.26-3.08-.47-5.92,3.43-5.09,7.46,4.74,8.88,4,6.75,3.2,8.76,5.57,2.13-1.66,7.82-2.13a7.35,7.35,0,0,1,4.74-2.13c3.08-.24,1.18-2.72,1.18-2.72l4-.36v2.37l2.72-1.3s4.5.83,4.5-.71v-4.5l3.55-3,5-5.68s5.57,4,6.51,2.37,3.55-5.09,6.28-5.09,3.79-3.2,5.33-2,5.09,6.63,7.22,7,9.47.36,9.47.36-.12-5.21,1.78-5.21,4.86-.59,6,2.49a3.57,3.57,0,0,0,4.26,2.25l6.28-1.89s4.62-1.78,5.09-4.74,4.14-5.21,4.14-5.21l.71,2v3.55s1.42,6.51,4,6.87,3.43,3.91,5.33,4.14,23.09,12.32,23.09,12.32,7.7,4.38,9.36,6.39-.24,14.57-1.3,15.39-3.67,3.32-3.67,3.32-3.55.95-3.67,1.89-.47,3.55-1.66,3.55-2,4-3.08,3.91-2.37-2.25-2.37-2.25l-.47-6.63a14.55,14.55,0,0,0-5.45-2.25c-2.49-.24-12.2-3.79-12.2-3.79s.12,5.92-2,5.8-3.67-3.08-3.67-3.08-2.49.36-3.08,1.3-2.37,3-3.79,2.61c0,0,1.3,2.13-.47,2.61s-3.08-2.13-3.08-2.13l-1.66-3.55-1.89,7-2.37-.24-.36-4.74s-4.26,3.2-4.26,4.86-1.07,7.11-2.84,7.58-3.67.59-4,.12-2-2.84-2.37-1.66,0,3.92-1.66,4.39a15.8,15.8,0,0,1-4.86,0l-1.07-1.31-1.42.47-.95,2.61-5.92,2.49-3.43,3s.12,4.26-1.07,4.5-2.84,2.37-2.84,2.37-.47,5.09-2.25,4.86.12,5.33-3.32,5.45-3.08-1.18-3.08-1.18-1.54,3.32-4,1.66.71,6-4.86,14.57-10.07,13.26-9.95,14.57,2,7.86,2,7.86l1.59-4.55s.81-.25.81,1.88a35.53,35.53,0,0,1-.85,5.87s1.07,5.23-2.24,11.75c0,0,3.31,3.42,2.67,4.27s-1.92,6.51-1.92,6.51l-.07,11.78,2.09,2.09-1.45,1.61v4.18l1.15,9.66s4-5,10.43,0h2.71s11.69-3.55,20.24,1.46c0,0,4.38-3.13,5.84,0s1,11.48-3.34,10.43-4-2.5-3.76-4,.63-5.22-2.5-4-5.63-.63-9,.21-10,.21-11.69-.83-8.77-1.25-9.39.42-1,10.43-1,10.43a12.26,12.26,0,0,0-1.09,6.06c.42,2.92-1.3,2.34-1.3,2.34l-1,28.32L269,537.27s-1.35,11.31-2,13.4c-.31,1-1.55,4.71-2.72,8.16a1.33,1.33,0,0,1-2.59-.38h0q0-.17,0-.34l3.38-72-1.85-10.34-.33,9.05a10.52,10.52,0,0,1-1.59,5.19h0a.82.82,0,0,1-1.51-.36c-.62-7.48-2.66-29-5-23.83-2.81,6.27-2.38,26-2.38,26a253.86,253.86,0,0,1-.43,30.93c-.36,4.21-.63,8.48-.84,12.45a1.15,1.15,0,0,1-2.29,0c-2-23.56-5.21-61.26-5.45-65.23-.34-5.82-6.5-24.3-6.5-29.78s-3.08-26-6.5-26-7.19,4.11-7.19,4.11l-2.95-14s-7.1-2.4-7.86-4.37-3.06,3.06-4.91,3.06-1.2,4.26-3.82,4.26-4.37-3.28-4.37-3.28-7.1,4.91-10.16,3.49a12.16,12.16,0,0,1-4.26-2.95s-.44,5.35-6.12,3.49-13.43-16.82-13.43-16.82-.44,4.26-1.53,4.37-9.29-3.59-9.29-3.59.64,3.7-1.45,3.7-8.2-2.57-8.2-2.57l-2.25,1.76s-6.11-1.28-7.88-2.56,1,7.07,1,7.07-.64,2.09-2.57,1.77-5.79-5.79-7.23-3.7a32.53,32.53,0,0,0-2.73,5.31S125,409,123,409.35s-5.63,3.54-5.63,5.95.8,9.49-1,9.81.15,9.59-1.1,10.21-6.26,1-5.84,4.38,10.44,1.67,11.06,5,1.67,4,1.67,7.31-2.3,3.34-1.25,4.38,2.5,4.8.83,6.05-5.43,3.13-3.34,4.17,19.41,7.93,20.67,9.6-.42,4.38-.42,4.38l-20.46-6.68s6.89,6.68,10.85,8.56,7.51,6.89,3.34,7.1-8.56-.21-8.35,1.67,1.67,10,1.67,10l-12.32-20-9.18-13.15s-12.94-5.43-7.72-9.81-11.48-8.38-11.48-8.38S68,441.79,67.75,440.54,60,438,65.67,428.85,71.43,416.38,71.43,416.38Z"/></clipPath></defs><title>Asset 54</title><g id="Layer_2" data-name="Layer 2"><g id="Layer_1-2" data-name="Layer 1"><g class="cls-2"><image width="1561" height="2325" transform="translate(0 0) scale(0.34)" xlink:href="../../../../Portfolio Gallery/D5.jpg"/></g></g></g></svg>