<svg xmlns="http://www.w3.org/2000/svg" xmlns:xlink="http://www.w3.org/1999/xlink" viewBox="0 0 822.5 819.73"><defs><style>.cls-1{fill:none;}.cls-2{clip-path:url(#clip-path);}.cls-3{clip-path:url(#clip-path-2);}</style><clipPath id="clip-path" transform="translate(0 0)"><path class="cls-1" d="M437,210.71l-1.24-10.5-1.65,2.68v-8.24l-1.44-9.89-1.44-8.86-2.88-17.09-1.85-3.09-3.71-2.06v-1.85s2.62.65,3.37,1.71l2,.15.08-.83-1.36-3-.08-2.26,3.13,3.09s6,5.2,7.11,6.63a73.11,73.11,0,0,0,5.43,5.43l13,11.3,1.36,1.43,1.51.68H459l1.81-2.94,3.92-5.88,3-4.37,1.13-5.12,1-2.94.53-1.58,1.36.6v2l-1.58,3.39,3.92-6,.9-2.41,2.94-3.69.53-2.11,1.88-1.58.53-2,1.13,1.08.38,1.05-1,.15L481,148l.6,1.05.23,3.69,1.36,3.69,1.05,4.07,1,6.63v2.56l.6,2.19.6,2.41.9,5.27-.53.75.53.4.43,5.4,1.74,14.07.61,9.31.71,3.74-.51,1.42-1.72-1.42V208l-.71,1.31-1.11.91v2.93h-1.42v-1.42l-.51-2.73-.51-4.45.51-1.72-1.31.3-.41,2.33-.49.86.89.21V213l-.79-.26-.16-.47-.62.21.16.52.16,1.7-.26,2.14h-.73l-.1-.88-.88.21-.36-1.19-.05-11.78-.16-4.41-.47-.93.1-3.37.26-2.85-.31-4.36-.16-3-1.35-1.56-.88-6.69-.31-1.4-1.19-8.66v-3l-.83.52-3.11,6.85-1.71,1.82-.21,3-1.4.31-.42,1.61v1.4l-.57,2.8-1,1.76-.16,2.23-1.19-.31-.42.93.31.88.88-.05,1.5,1.35.62,2.33.05,1.4-1.56.36-2.65-2.85-2.18-2.44-.57,2.23-.78.21-1.71,1.39-1.52.17-1.54-.17v-1.36l-2.29.08-4.83-6.79L447,182.1l-.93-1.36-.08-1.58-1.1-.71-.25-1-1.78-2.21L441,172.18l-.85-1-.51-.76-1-2.88-1.87-2-.76-3-1.87-.59.34,1.19.59,4.75,1.61,13.66,1.27,9.33-.51,1.1.25,1.53.59,3.14-.08,1.61-.42.93.76.59v2.88l.42,5.17v1.53l-.85.68Z"/></clipPath><clipPath id="clip-path-2" transform="translate(0 0)"><path class="cls-1" d="M507.55,182.4l-2.12-16.83-2-3.82-1.7-9.9-1-5.09s1.7,4.95,2.55,4.95.85-3.25.85-3.25l-.71-1.7.71-2.69.85,1.56,1.84,6.93,1.7,5.37v-4.67l1.56-.14,1.13,7.21,2.26,7.64v6.22L515,177l.71,5.37,18.67-.85-.71-6.36-.85-9.33-.57-9.19.42-7.78-.85-4.81v-2.26l1.7.71.85,6.36,1.41,2.4v1.56l1.41.14,1.56,5.52v2.69l1.41.92V166l1.13,2.69v4.81l-1.27-3.25-1.41-5.66-.57-1.7v5.8l.42,2.83.57,1.84.85,9.05h2.26l4.1-.85h3.82l2.55-.57v2.26h1.56l-6.51,1.56h-7.07l1.13,6.79.85,6.79L544,200.5l1.56.57-.57,2.55.14,2.4-.57,7.92-1,1.58.42,2.38-1.7.71-1-3.08,1.7-2.86.14-5.8L541.06,204l-.28-3.11-1.27-6.08-.14-2.83-1.84.42-.42,3.39.28,3-.57,1.27-.85-1.56-.42-5.8s-16.4-.57-17.11-1.27-2,1.56-2,1.56l.71,9.9V206h1.41l-.28,3.54L517,210.83l1.7,2.4.28,2.29h-2.12l-.85-1.58-.85-2.69.14-1.56-1.41-.71-.42,1.7-.14,3-1.56-.14-.28-3.25-.71-4.67-.85-1.84-.57-4.38.57-1.84-.85-2v-1.41s1-1.7.14-2.55a2.49,2.49,0,0,1-.42-2.26l-2.69.57s-1.13-1.41.14-1.41,2.55.57,2.69-1.41a8.18,8.18,0,0,0-.14-2.83,61,61,0,0,0-6.79,1.13c-1,.42-3,1.13-3,1.13v-1.56s.85,0,1.84-1.27,1.5.62,1.5.62l1.95-.7S508.24,183.71,507.55,182.4Z"/></clipPath><image id="image" width="2670" height="2661" xlink:href="../../../../Portfolio Gallery/A4.jpg"/></defs><title>Asset 62</title><g id="Layer_2" data-name="Layer 2"><g id="Layer_1-2" data-name="Layer 1"><g class="cls-2"><use transform="translate(0 0) scale(0.31)" xlink:href="#image"/></g><g class="cls-3"><use transform="translate(26.84 12.21) scale(0.29)" xlink:href="#image"/></g></g></g></svg>