<svg xmlns="http://www.w3.org/2000/svg" viewBox="0 0 288.63 175.21"><defs><style>.cls-1{fill:none;stroke:#c5cedc;stroke-miterlimit:10;}</style></defs><title>Asset 63</title><g id="Layer_2" data-name="Layer 2"><g id="Layer_1-2" data-name="Layer 1"><path class="cls-1" d="M111.23,14.3l45.33-9.13c28.55-5.75,62.62-9.92,82.78,11.1,17.51,18.26,16.49,48.24,32.2,68.07,4,5,8.93,9.25,12.25,14.72,9,14.85,3.06,35.21-9.36,47.34s-29.71,17.75-46.59,21.87c-25.47,6.21-52.62,9.81-77.63,1.94-15.45-4.87-29.78-14-45.92-15.35-20.72-1.71-40.85,9.82-61.56,8-51.21-4.38-49.33-60.37-28.55-93.7C35.35,35.25,73.81,21.84,111.23,14.3Z"/></g></g></svg>