<svg xmlns="http://www.w3.org/2000/svg" viewBox="0 0 275.96 343.59"><defs><style>.cls-1{fill:none;stroke:#e1e4db;stroke-miterlimit:10;}</style></defs><title>Asset 72</title><g id="Layer_2" data-name="Layer 2"><g id="Layer_1-2" data-name="Layer 1"><path class="cls-1" d="M44.63,89.22c-1.54-7.72-6.07-15.41-3.85-23,1.6-5.44,6.36-9.26,10.86-12.72L93.41,21.4c9-6.92,18.19-14,28.88-17.78,18.93-6.77,41.13-2.19,56.77,10.43s24.7,32.59,25.4,52.68c.17,5-.07,10.25,2.34,14.62,1.69,3.06,4.51,5.31,7.24,7.51,23.34,18.79,46.51,42.3,49.46,72.12,1.72,17.4-3.71,35.66,2.23,52.11,2.76,7.64,7.86,14.44,9.3,22.43s-1,16.14-4.82,23.25c-12.44,23.1-38,35.66-55.74,55-5.28,5.73-9.91,12.1-15.87,17.11-13.73,11.56-33.36,14.53-50.86,10.58s-33.08-14.12-46.29-26.28c-8.45-7.78-16.53-16.7-27.38-20.46-3.78-1.31-7.85-2-11.22-4.12-6.64-4.22-8.85-12.94-14.56-18.34-8.84-8.36-23-6.56-34.38-10.83a21.49,21.49,0,0,1-6.37-3.57C3.93,254.77,1.83,250.2,1,245.54c-2-10.82,2.32-21.87,8.19-31.17s13.37-17.52,18.94-27c8.73-14.87,9.48-27.75,8.81-44.12C36.17,124.88,48.29,107.6,44.63,89.22Z"/></g></g></svg>