<svg xmlns="http://www.w3.org/2000/svg" xmlns:xlink="http://www.w3.org/1999/xlink" viewBox="0 0 727.31 969.75"><defs><style>.cls-1{fill:none;}.cls-2{clip-path:url(#clip-path);}</style><clipPath id="clip-path" transform="translate(0 0)"><path class="cls-1" d="M268.31,780.06S264.42,784,261.5,784s-3.25,0-4.87-1.95L255,718.08V651.23s-1.3-44.78,0-50-.58-30.51-.58-30.51.64-21.42,0-24.1-1.13-4.86-1.13-4.86h-2.67s-4.37-9.72-2.92-9.72h6.81s-2.92-18-2.43-19-.49-37.91,1-42.29.49-20.17.49-20.17V407.87L253.3,344,253.06,298l.24-5.1s-2.67-11.67-1.7-14.34.49-39.37.49-39.37l.73-9-3.89-21.87v-3.89s1.94-5.35,1.94-7.29-.24-9.72-.24-9.72l.24-18.71v-54l-.24-19.93s1-36.21.49-37.67.24-34.51.24-34.51,1.22-3.89,4.86-3.65,8.39-3.89,12.09,2.92c0,0,1.4,7.29,0,29.41s-.43,33.05-.43,33.05,1.86,25,1,29.41a22.83,22.83,0,0,0,.2,8.51s-1.8,5-1.8,8.5,2.35,34.77,1.8,44,.08,23.86.08,23.86a94.36,94.36,0,0,1,0,17.12c-.83,10.2.37,35.79.37,35.79l1.3,38.29S269,308.71,269,325.06s0,41.36.77,43.67,1.73,10.39,1.15,13.85-1,19.82.18,26.17a33.84,33.84,0,0,1-.95,15c-.77,2.5-.77,32.27-.77,40.6s.89,40.18-2.38,47.92l.23,28.17,1.42,52.78,1.26,1.73.63,2.52-.95,2.21-.95,1.58-.16,9.45.95,1.42-.79,15.91-1.1,3.94s-2.21,29.3-1.58,41.75-1.26,15.44,2.36,34.82l.95,3.31s-1.1,1.73-.63,6.14-.79,11.34-.79,11.34l.32,3.62,1.1,43.17S269.71,778.82,268.31,780.06Z"/></clipPath></defs><title>Asset 29</title><g id="Layer_2" data-name="Layer 2"><g id="Layer_1-2" data-name="Layer 1"><g class="cls-2"><image width="3264" height="2448" transform="translate(727.31 0) rotate(90) scale(0.3)" xlink:href="../../../../Portfolio Gallery/N1.JPG"/></g></g></g></svg>