<svg xmlns="http://www.w3.org/2000/svg" viewBox="0 0 339.5 281.95"><defs><style>.cls-1{fill:none;stroke:#b31315;stroke-miterlimit:10;}</style></defs><title>Asset 22</title><g id="Layer_2" data-name="Layer 2"><g id="Layer_1-2" data-name="Layer 1"><path class="cls-1" d="M31.79,177.61c-17.36-22.82-35-49.45-30.59-77.78C4.43,79.22,18.88,62.31,33.7,47.62c25-24.8,56.13-48,91.36-47.1,23.06.56,44.46,11.42,64.94,22C204,29.78,217.94,37,230.92,45.87c19,12.93,35.54,29.05,52,45.09l49.26,48c2.66,2.6,5.43,5.37,6.43,9s0,7.46-1.11,11c-10.14,31.86-33.26,58.33-60.06,78.32a244.21,244.21,0,0,1-67.79,35.58c-22.09,7.46-46.16,11.7-68.69,5.73-27.86-7.38-31-26.16-47.71-44.5-8-8.77-21.35-13.16-30.47-21.26C51,202.47,41.23,190,31.79,177.61Z"/></g></g></svg>