<svg xmlns="http://www.w3.org/2000/svg" xmlns:xlink="http://www.w3.org/1999/xlink" viewBox="0 0 1036.01 1032.51"><defs><style>.cls-1{fill:none;}.cls-2{clip-path:url(#clip-path);}.cls-3{clip-path:url(#clip-path-2);}.cls-4{clip-path:url(#clip-path-3);}.cls-5{clip-path:url(#clip-path-4);}</style><clipPath id="clip-path" transform="translate(0 0)"><path class="cls-1" d="M594.94,247.31l-1.26-10.7L592,239.34V231l-1.47-10.07-1.47-9-2.94-17.41-1.89-3.15-3.78-2.1v-1.89s2.66.66,3.43,1.74l2,.15.08-.84-1.38-3.07-.08-2.3,3.19,3.15s6.15,5.3,7.24,6.75a74.47,74.47,0,0,0,5.54,5.53l13.28,11.51,1.38,1.46,1.54.69h.69l1.84-3,4-6,3.07-4.45,1.15-5.22,1-3,.54-1.61,1.38.61v2l-1.61,3.45,4-6.06.92-2.46,3-3.76.54-2.15,1.92-1.61.54-2,1.15,1.1.38,1.07-1,.15-.38,4.3.61,1.07.23,3.76L642,192l1.07,4.14,1,6.75v2.61l.61,2.23.61,2.46.92,5.37-.54.77.54.41.44,5.5,1.78,14.33.62,9.48.72,3.81-.52,1.44-1.75-1.44v-5.36l-.72,1.34-1.13.93v3h-1.44v-1.44l-.52-2.78-.52-4.53.52-1.75-1.34.31L642,242l-.5.88.91.21v6.55l-.81-.26-.16-.48-.63.21.16.53.16,1.73-.26,2.18h-.74l-.11-.9-.9.21-.37-1.22-.05-12-.16-4.49-.48-1,.11-3.43.26-2.91-.32-4.44-.16-3.06-1.37-1.59-.9-6.82-.32-1.43-1.22-8.82v-3l-.85.53-3.17,7L628.35,208l-.21,3-1.43.32-.42,1.64v1.43l-.58,2.85-1.06,1.8-.16,2.27-1.22-.32-.42,1,.32.9.9-.05,1.53,1.37.63,2.38.05,1.43-1.59.37-2.7-2.91L619.79,223l-.58,2.27-.79.21-1.74,1.42-1.55.17-1.57-.17v-1.38l-2.33.09-4.92-6.91-1.21-.52-1-1.38-.09-1.6-1.12-.73-.26-1-1.81-2.25L599,208.06l-.86-1-.52-.78-1-2.94-1.9-2.07-.78-3-1.9-.6.35,1.21.6,4.84,1.64,13.91,1.3,9.5-.52,1.12.26,1.56.6,3.2-.09,1.64-.43,1,.78.6v2.94l.43,5.27v1.56l-.86.69Z"/></clipPath><clipPath id="clip-path-2" transform="translate(0 0)"><path class="cls-1" d="M666.82,218.48l-2.16-17.14-2-3.89-1.73-10.08-1-5.19s1.73,5,2.59,5,.86-3.31.86-3.31l-.72-1.73.72-2.74.86,1.58,1.87,7.06,1.73,5.47V188.8l1.58-.14,1.15,7.35,2.3,7.78v6.34l1.58,2.88.72,5.47,19-.86-.72-6.48-.86-9.51-.58-9.36.43-7.92-.86-4.9v-2.3l1.73.72.86,6.48,1.44,2.45v1.58l1.44.14,1.58,5.62v2.74l1.44.94v4l1.15,2.74v4.9l-1.3-3.31-1.44-5.76-.58-1.73v5.91l.43,2.88.58,1.87.86,9.22h2.3l4.18-.86h3.89l2.59-.58v2.3h1.58l-6.63,1.58h-7.2l1.15,6.91.86,6.91,1.44,2.16,1.58.58-.58,2.59.14,2.45-.58,8.07-1,1.61.43,2.42-1.73.72-1-3.14L703,249.3l.14-5.91L701,240.52l-.29-3.17-1.3-6.19-.14-2.88-1.87.43-.43,3.46.29,3-.58,1.3-.86-1.58-.43-5.91s-16.71-.58-17.43-1.3-2,1.58-2,1.58l.72,10.08v3.17h1.44l-.29,3.6-1.3,1.3,1.73,2.45.29,2.33h-2.16l-.86-1.61-.86-2.74.14-1.58-1.44-.72-.43,1.73-.14,3-1.58-.14-.29-3.31-.72-4.75-.86-1.87-.58-4.47.58-1.87-.86-2v-1.44s1-1.73.14-2.59a2.54,2.54,0,0,1-.43-2.3l-2.74.58s-1.15-1.44.14-1.44,2.59.58,2.74-1.44a8.33,8.33,0,0,0-.14-2.88,62.11,62.11,0,0,0-6.91,1.15c-1,.43-3,1.15-3,1.15v-1.58s.86,0,1.87-1.3,1.53.63,1.53.63l2-.71S667.52,219.81,666.82,218.48Z"/></clipPath><clipPath id="clip-path-3" transform="translate(0 0)"><path class="cls-1" d="M747.44,177.76s1.75,1.42,2.33,1.42,3,.42,3,1.17.75,5,.75,5l.67,1.25v8.25l-.75,1.08h.75l.5,1.92v3.08l-.67.75a10.82,10.82,0,0,0-.67,3.25,24.69,24.69,0,0,1,.25,2.58s.42,2.17.08,2.58-.5,3.67-.5,3.67l.58,4.75v1.25l-.17,1.75-.33,2.25h-1.17l.25.92.25,3.25.75.92-.83,1,.33,1.33.42,1.17.5,2.08-.08,5.75s.67,3.08-.83,3.83h-.43l.08,3.6-.16,6.53h-2.94l-.13-9.91.25-7.16-.31-2.07-.25-5.84,0-15.8-.34-4.69-1.17-2.29S739,211,737.05,211.68s-4.8,2.17-5.72,2.17a37.6,37.6,0,0,1-8.12-2.17c-1.49-.8-5.26-3.89-5.49-5.26s-2.29-6.29-1.37-12.81l2.52-3.89s4.12-6.75,7.66-8l.46-1.26.69,2.74,1.14-1,1.14-3.32.46,3.55,1.14-1.19s0-2.35,1.26-2.47,1.51-.93,2.58-1,2.45-1.54,2.45-1.54h1.6l1.83-.57h3.89l1.94,1Z"/></clipPath><clipPath id="clip-path-4" transform="translate(0 0)"><polygon class="cls-1" points="772.34 194.08 770.58 190.52 768.13 171.89 769.93 174.09 772.14 188.17 774.12 188.26 773.27 182.88 772.43 177.46 774.88 176.88 774.98 179.84 776.4 182.78 778.46 190.09 781.16 201.84 780.49 206.14 781.36 207.76 781.64 215.97 781.75 219.1 782.38 219.08 782.29 216.4 783.02 215.97 783.74 222.07 783.57 223.76 783.22 225.25 783.62 230.13 784.37 230.51 784.75 241.59 785.54 264.75 783.88 260.15 783.22 253.03 781.87 252.87 782.39 264.86 780.88 260.04 779.99 258.21 780.08 254.89 778.11 255.58 775.95 255.34 775.53 243.04 777.56 239.52 777.38 234.28 775.99 226.33 775.4 217.22 774.62 210.34 774.29 200.96 772.34 194.08"/></clipPath><image id="image" width="2670" height="2661" xlink:href="../../../../Portfolio Gallery/A4.jpg"/></defs><title>Asset 18</title><g id="Layer_2" data-name="Layer 2"><g id="Layer_1-2" data-name="Layer 1"><g class="cls-2"><use transform="translate(149.82 32.68) scale(0.31)" xlink:href="#image"/></g><g class="cls-3"><use transform="translate(177.17 45.12) scale(0.29)" xlink:href="#image"/></g><g class="cls-4"><use transform="translate(166.33 43.67) scale(0.3)" xlink:href="#image"/></g><g class="cls-5"><use transform="scale(0.39)" xlink:href="#image"/></g></g></g></svg>