<svg xmlns="http://www.w3.org/2000/svg" viewBox="0 0 699.9 647.25"><defs><style>.cls-1{fill:none;stroke:#e1e4db;stroke-miterlimit:10;}</style></defs><title>Asset 48</title><g id="Layer_2" data-name="Layer 2"><g id="Layer_1-2" data-name="Layer 1"><path class="cls-1" d="M242.37,3.07c27.69,6.55,51.74,23.15,75.53,38.76s49,30.93,77.29,34.32c13.55,1.63,27.36.43,40.85,2.53,53.29,8.28,84.89,62.51,128.4,94.38,20.22,14.81,44,25.32,60.81,43.9,9,10,15.65,21.84,22.19,33.59,19.49,35,39.24,70.76,47.21,110,5.12,25.22,5.21,51.18,4.38,76.9a1102.25,1102.25,0,0,1-11.78,128.95c-1.77,11.7-3.76,23.49-8.35,34.39-15.59,37-63.63,56.25-100.44,40.3-6.55-2.84-12.73-6.61-19.56-8.69-13.74-4.18-28.46-1.14-42.81-.52-50.69,2.21-97.12-25.8-145.86-39.92-62-17.95-129.65-13.7-189.11-38.69-20.62-8.67-40.66-21.64-51.06-41.44-11.86-22.58-9.2-49.92-3.64-74.82A368.18,368.18,0,0,1,146,375.51a133,133,0,0,0-24-44.09c-12.42-15.08-28-27.2-42.05-40.75A278.94,278.94,0,0,1,4,161.27c-3.49-13.32-5.86-28,.17-40.41,4-8.12,11.05-14.18,18-20C42.43,83.77,63.93,66.07,90,61c11.25-2.19,22.91-1.89,34-4.59,26.63-6.45,33.25-28.16,52.82-42.89C194.94-.1,220.94-2,242.37,3.07Z"/></g></g></svg>