<svg xmlns="http://www.w3.org/2000/svg" viewBox="0 0 452.54 408.97"><defs><style>.cls-1{fill:none;stroke:#b31315;stroke-miterlimit:10;}</style></defs><title>Asset 77</title><g id="Layer_2" data-name="Layer 2"><g id="Layer_1-2" data-name="Layer 1"><path class="cls-1" d="M.5,280.52c-.18-15.5,6.38-30.19,12.82-44.3l39.07-85.57c9-19.81,18.34-40,33.19-55.94,30-32.23,76.74-41.43,115.21-62.9,28.57-15.95,59.76-40,90.22-28.11,15.54,6.09,26.09,20.4,35.76,34,8.76,12.32,17.6,24.77,23.5,38.69,12.82,30.23,10.81,64.82,21.19,96,15.29,45.92,55.59,79.54,74.29,124.18,4.81,11.48,8.15,24.24,5.16,36.33-2.51,10.17-9.23,18.77-16.51,26.32-48.17,50-129.79,63.9-191.79,32.65-15.25-7.69-29.22-17.71-44.26-25.79-41.57-22.33-82.18-23.14-127.77-20.49C35.15,347.64.95,317.78.5,280.52Z"/></g></g></svg>